<?xml version="1.0" standalone="no"?><!DOCTYPE svg PUBLIC "-//W3C//DTD SVG 1.1//EN" "http://www.w3.org/Graphics/SVG/1.1/DTD/svg11.dtd"><svg class="icon" width="200px" height="200.00px" viewBox="0 0 1024 1024" version="1.1" xmlns="http://www.w3.org/2000/svg"><path d="M964 665.192V90c0-49.626-40.374-90-90-90H212C162.374 0 122 40.374 122 90v32H90C40.374 122 0 162.374 0 212s40.374 90 90 90h32v120H90c-49.626 0-90 40.374-90 90s40.374 90 90 90h32v120H90c-49.626 0-90 40.374-90 90s40.374 90 90 90h32v30c0 23.91 9.194 46.694 25.888 64.158C165.052 1014.112 187.822 1024 212 1024h602c115.794 0 210-95.102 210-212 0-57.086-22.908-108.916-60-146.808zM90 242c-16.542 0-30-13.458-30-30s13.458-30 30-30h62c16.542 0 30 13.458 30 30s-13.458 30-30 30H90z m0 300c-16.542 0-30-13.458-30-30s13.458-30 30-30h62c16.542 0 30 13.458 30 30s-13.458 30-30 30H90z m62 300H90c-16.542 0-30-13.458-30-30s13.458-30 30-30h62c16.542 0 30 13.458 30 30s-13.458 30-30 30z m60 122c-15.98 0-30-14.954-30-32v-35.16c34.918-12.384 60-45.73 60-84.84 0-39.11-25.082-72.456-60-84.84v-130.32c34.918-12.384 60-45.73 60-84.84 0-39.11-25.082-72.456-60-84.84v-130.32c34.918-12.384 60-45.73 60-84.84s-25.082-72.456-60-84.84V90c0-16.542 13.458-30 30-30h662c16.542 0 30 13.458 30 30v532.29c-27.292-13-57.81-20.29-90-20.29-115.794 0-210 94.206-210 210 0 59.56 24.466 113.452 63.772 152H212z m602 0c-82.71 0-150-68.186-150-152 0-82.71 67.29-150 150-150s150 67.29 150 150c0 83.814-67.29 152-150 152z"  /><path d="M814 242h-180c-16.568 0-30 13.432-30 30s13.432 30 30 30h180c16.568 0 30-13.432 30-30s-13.432-30-30-30zM814 482h-180c-16.568 0-30 13.432-30 30s13.432 30 30 30h180c16.568 0 30-13.432 30-30s-13.432-30-30-30zM874 782h-30v-30c0-16.568-13.432-30-30-30s-30 13.432-30 30v60c0 16.568 13.432 30 30 30h60c16.568 0 30-13.432 30-30s-13.432-30-30-30zM533.212 190.786c-11.714-11.716-30.71-11.716-42.424 0.002L392 289.574l-47.222-47.222c-11.714-11.716-30.71-11.716-42.426 0-11.716 11.716-11.716 30.71 0 42.426l68.436 68.436C376.644 359.072 384.322 362 392 362s15.356-2.928 21.212-8.788l120-120c11.716-11.716 11.716-30.71 0-42.426zM533.212 430.786c-11.714-11.716-30.71-11.716-42.424 0.002L392 529.574l-47.222-47.222c-11.714-11.716-30.71-11.716-42.426 0-11.716 11.716-11.716 30.71 0 42.426l68.436 68.436C376.644 599.072 384.322 602 392 602s15.356-2.928 21.212-8.788l120-120c11.716-11.716 11.716-30.71 0-42.426zM533.212 670.786c-11.714-11.716-30.71-11.716-42.424 0.002L392 769.574l-47.222-47.222c-11.714-11.716-30.71-11.716-42.426 0-11.716 11.716-11.716 30.71 0 42.426l68.436 68.436C376.644 839.072 384.322 842 392 842s15.356-2.928 21.212-8.788l120-120c11.716-11.716 11.716-30.71 0-42.426z"  /></svg>