<?xml version="1.0" standalone="no"?><!DOCTYPE svg PUBLIC "-//W3C//DTD SVG 1.1//EN" "http://www.w3.org/Graphics/SVG/1.1/DTD/svg11.dtd"><svg t="1741081822984" class="icon" viewBox="0 0 1024 1024" version="1.1" xmlns="http://www.w3.org/2000/svg" p-id="3567" xmlns:xlink="http://www.w3.org/1999/xlink" width="200" height="200"><path d="M 808.96 141.312 h -245.76 c -35.0208 0 -63.488 28.4672 -63.488 63.488 v 245.76 c 0 35.0208 28.4672 63.488 63.488 63.488 h 245.76 c 35.0208 0 63.488 -28.4672 63.488 -63.488 V 204.8 c 0 -35.0208 -28.4672 -63.488 -63.488 -63.488 Z m 18.432 309.248 c 0 10.24 -8.192 18.432 -18.432 18.432 h -245.76 c -10.24 0 -18.432 -8.192 -18.432 -18.432 V 204.8 c 0 -10.24 8.192 -18.432 18.432 -18.432 h 245.76 c 10.24 0 18.432 8.192 18.432 18.432 v 245.76 Z M 808.96 550.912 h -245.76 c -35.0208 0 -63.488 28.4672 -63.488 63.488 v 245.76 c 0 35.0208 28.4672 63.488 63.488 63.488 h 245.76 c 35.0208 0 63.488 -28.4672 63.488 -63.488 V 614.4 c 0 -35.0208 -28.4672 -63.488 -63.488 -63.488 Z m 18.432 309.248 c 0 10.24 -8.192 18.432 -18.432 18.432 h -245.76 c -10.24 0 -18.432 -8.192 -18.432 -18.432 V 614.4 c 0 -10.24 8.192 -18.432 18.432 -18.432 h 245.76 c 10.24 0 18.432 8.192 18.432 18.432 v 245.76 Z M 399.36 550.912 h -245.76 c -35.0208 0 -63.488 28.4672 -63.488 63.488 v 245.76 c 0 35.0208 28.4672 63.488 63.488 63.488 h 245.76 c 35.0208 0 63.488 -28.4672 63.488 -63.488 V 614.4 c 0 -35.0208 -28.4672 -63.488 -63.488 -63.488 Z m 18.432 309.248 c 0 10.24 -8.192 18.432 -18.432 18.432 h -245.76 c -10.24 0 -18.432 -8.192 -18.432 -18.432 V 614.4 c 0 -10.24 8.192 -18.432 18.432 -18.432 h 245.76 c 10.24 0 18.432 8.192 18.432 18.432 v 245.76 Z" p-id="3568"></path></svg>