<?xml version="1.0" standalone="no"?><!DOCTYPE svg PUBLIC "-//W3C//DTD SVG 1.1//EN" "http://www.w3.org/Graphics/SVG/1.1/DTD/svg11.dtd"><svg class="icon" width="200px" height="200.00px" viewBox="0 0 1024 1024" version="1.1" xmlns="http://www.w3.org/2000/svg"><path d="M217.960484 521.135711c-66.298676 0-120.235983-53.937308-120.235983-120.235983 0-12.371098 10.028484-22.398366 22.399582-22.398366S142.523665 388.52863 142.523665 400.899728c0 41.596617 33.841419 75.439252 75.438035 75.439252s75.438036-33.841419 75.438036-75.439252c0-12.371098 10.028484-22.398366 22.399582-22.398366s22.399582 10.028484 22.399582 22.398366c-0.001216 66.298676-53.93974 120.235983-120.238416 120.235983z" fill="#4E4D4D" /><path d="M413.207578 521.135711c-66.298676 0-120.235983-53.937308-120.235983-120.235983 0-12.371098 10.028484-22.398366 22.399582-22.398366s22.399582 10.028484 22.399582 22.398366c0 41.596617 33.841419 75.439252 75.438035 75.439252s75.438036-33.841419 75.438036-75.439252c0-12.371098 10.028484-22.398366 22.399582-22.398366 12.371098 0 22.399582 10.028484 22.399582 22.398366-0.002433 66.298676-53.940957 120.235983-120.238416 120.235983z" fill="#4E4D4D" /><path d="M609.73788 521.135711c-66.298676 0-120.235983-53.937308-120.235983-120.235983 0-12.371098 10.028484-22.398366 22.399582-22.398366 12.371098 0 22.399582 10.028484 22.399582 22.398366 0 41.596617 33.841419 75.439252 75.438036 75.439252s75.438036-33.841419 75.438035-75.439252c0-12.371098 10.028484-22.398366 22.398366-22.398366 12.371098 0 22.399582 10.028484 22.399582 22.398366-0.001216 66.298676-53.938524 120.235983-120.2372 120.235983z" fill="#4E4D4D" /><path d="M804.983758 521.135711c-66.298676 0-120.235983-53.937308-120.235983-120.235983 0-12.371098 10.028484-22.398366 22.398365-22.398366 12.371098 0 22.399582 10.028484 22.399582 22.398366 0 41.596617 33.841419 75.439252 75.438036 75.439252s75.438036-33.841419 75.438036-75.439252c0-12.371098 10.028484-22.398366 22.399582-22.398366s22.399582 10.028484 22.399582 22.398366c-0.001216 66.298676-53.93974 120.235983-120.2372 120.235983z" fill="#4E4D4D" /><path d="M776.953873 497.686453v362.307399c0 20.91325-17.013757 37.927007-37.925791 37.927007H283.917376c-20.91325 0-37.927007-17.013757-37.927007-37.927007V497.686453h-44.821057v362.307399c0 45.70045 37.047614 82.748064 82.748064 82.748064h455.110706c45.70045 0 82.746848-37.047614 82.746848-82.748064V497.686453h-44.821057zM143.102629 403.126793l81.736093-223.831617c6.47199-16.747385 14.262462-35.167198 23.058823-45.441376 5.343254-6.240891 9.650211-8.244155 17.726515-8.244155H757.320182c8.419304 0 13.044935 2.044619 18.332238 8.105496 9.342484 10.707185 17.1512 30.761719 22.21227 44.913497l0.051085 0.141092 0.051085 0.141092 81.87597 224.217188c-0.122847 0.713975 44.912281 2.118814 44.912281 2.118813 0.289482-2.813327 0.4549-5.663144 0.4549-8.551882l-85.141765-233.158289c-17.083087-47.771828-37.047614-82.746848-82.748064-82.746848H265.62406c-45.70045 0-64.783152 36.192548-82.746848 82.746848l-85.141764 233.158289c0 2.889955 0.165418 5.739771 0.4549 8.551882-0.001216 0 45.035128-1.404839 44.912281-2.12003z" fill="#4E4D4D" /></svg>