<?xml version="1.0" standalone="no"?><!DOCTYPE svg PUBLIC "-//W3C//DTD SVG 1.1//EN" "http://www.w3.org/Graphics/SVG/1.1/DTD/svg11.dtd"><svg t="1741164344400" class="icon" viewBox="0 0 1024 1024" version="1.1" xmlns="http://www.w3.org/2000/svg" p-id="3903" xmlns:xlink="http://www.w3.org/1999/xlink" width="200" height="200"><path d="M896 298.666667l-213.333333-213.333334H170.368A42.368 42.368 0 0 0 128 127.658667v768.682666a42.666667 42.666667 0 0 0 42.368 42.325334h683.264a42.368 42.368 0 0 0 42.368-42.325334V298.666667zM405.333333 341.333333h256a42.666667 42.666667 0 0 1 42.666667 42.666667v128h-85.333333v-85.333333h-213.333334v85.333333L256 384l149.333333-128v85.333333z m213.333334 384h-256a42.666667 42.666667 0 0 1-42.666667-42.666666v-128h85.333333v85.333333h213.333334v-85.333333l149.333333 128-149.333333 128v-85.333334z" fill="#2c2c2c" p-id="3904"></path></svg>