<?xml version="1.0" standalone="no"?><!DOCTYPE svg PUBLIC "-//W3C//DTD SVG 1.1//EN" "http://www.w3.org/Graphics/SVG/1.1/DTD/svg11.dtd"><svg class="icon" width="200px" height="200.00px" viewBox="0 0 1024 1024" version="1.1" xmlns="http://www.w3.org/2000/svg"><path d="M874.118436 149.881564Q802.037989 76.656983 708.218994 38.328492T512 0Q409.6 0 315.781006 38.328492t-165.899442 110.981005q-72.080447 72.652514-110.981005 165.899442T0 511.427933q0 74.368715 21.16648 145.877095T82.377654 790.596648q8.008939 12.585475 22.882681 15.44581t26.887151-5.148603q12.013408-8.008939 15.44581-22.310615t-4.576536-26.887151q-35.468156-53.774302-53.774302-114.985474T70.936313 511.427933q0-118.989944 60.639106-221.962011 58.350838-99.539665 157.890503-159.034637Q392.437989 70.936313 512 70.936313T734.534078 130.431285q99.539665 59.494972 157.890503 159.034637 60.639106 102.972067 60.639106 222.534078T892.424581 733.389944q-58.350838 100.683799-157.890503 159.034637-102.972067 59.494972-221.962011 59.494972-123.56648 0-228.826816-62.927374-12.585475-8.008939-26.88715-4.00447t-21.738548 16.589945q-7.436872 12.585475-4.004469 26.88715t16.017877 21.166481q59.494972 36.612291 126.998883 55.490503T512.572067 1024q101.827933 0 195.646927-38.900559t165.899442-111.553072q72.080447-72.652514 110.981005-165.899442T1024 511.427933q0-102.972067-38.900559-196.218994T874.118436 149.881564zM491.977654 161.322905q-18.306145 0-31.463688 13.157542T447.356425 205.944134v329.510615q2.288268 17.162011 14.873743 28.031285t30.89162 10.869273h256.286033q18.306145 0 31.463687-13.729609t13.157542-32.035754q0-18.306145-13.157542-31.463687T749.407821 483.968715H537.743017V205.944134q0-18.306145-13.157542-31.463687T491.977654 161.322905z" /></svg>